<?xml version="1.0" encoding="UTF-8" standalone="no"?>
<!-- Created with Inkscape (http://www.inkscape.org/) -->

<svg
   width="2190.0706mm"
   height="1496.9014mm"
   viewBox="0 0 2190.0708 1496.9013"
   version="1.1"
   id="svg1"
   xml:space="preserve"
   sodipodi:docname="Full_Logo_Icon_Top.svg"
   inkscape:version="1.3.2 (091e20e, 2023-11-25, custom)"
   inkscape:export-filename="Full_Logo_Icon_Top.png"
   inkscape:export-xdpi="96"
   inkscape:export-ydpi="96"
   xmlns:inkscape="http://www.inkscape.org/namespaces/inkscape"
   xmlns:sodipodi="http://sodipodi.sourceforge.net/DTD/sodipodi-0.dtd"
   xmlns:xlink="http://www.w3.org/1999/xlink"
   xmlns="http://www.w3.org/2000/svg"
   xmlns:svg="http://www.w3.org/2000/svg"><sodipodi:namedview
     id="namedview1"
     pagecolor="#505050"
     bordercolor="#eeeeee"
     borderopacity="1"
     inkscape:showpageshadow="0"
     inkscape:pageopacity="0"
     inkscape:pagecheckerboard="0"
     inkscape:deskcolor="#505050"
     inkscape:document-units="mm"
     inkscape:zoom="0.072312586"
     inkscape:cx="4017.2813"
     inkscape:cy="3996.538"
     inkscape:window-width="1920"
     inkscape:window-height="1051"
     inkscape:window-x="-9"
     inkscape:window-y="-9"
     inkscape:window-maximized="1"
     inkscape:current-layer="svg1" /><defs
     id="defs1"><linearGradient
       id="linearGradient4"><stop
         style="stop-color:#87ceeb;stop-opacity:0.00250627;"
         offset="0"
         id="stop5" /><stop
         style="stop-color:#87ceeb;stop-opacity:1;"
         offset="0.15630884"
         id="stop8" /><stop
         style="stop-color:#87ceeb;stop-opacity:1;"
         offset="0.70809793"
         id="stop7" /><stop
         style="stop-color:#87ceeb;stop-opacity:0;"
         offset="1"
         id="stop6" /></linearGradient><linearGradient
       id="linearGradient2"><stop
         style="stop-color:#87ceeb;stop-opacity:1;"
         offset="0"
         id="stop2" /><stop
         style="stop-color:#87ceeb;stop-opacity:0.68235294;"
         offset="0.31463796"
         id="stop4" /><stop
         style="stop-color:#87ceeb;stop-opacity:0;"
         offset="1"
         id="stop3" /></linearGradient><marker
       style="overflow:visible"
       id="Dot"
       refX="0"
       refY="0"
       orient="auto"
       markerWidth="0.69999999"
       markerHeight="0.69999999"
       viewBox="0 0 1 1"
       preserveAspectRatio="xMidYMid"><path
         transform="scale(0.5)"
         style="fill:context-stroke;fill-rule:evenodd;stroke:none"
         d="M 5,0 C 5,2.76 2.76,5 0,5 -2.76,5 -5,2.76 -5,0 c 0,-2.76 2.3,-5 5,-5 2.76,0 5,2.24 5,5 z"
         id="path17" /></marker><linearGradient
       xlink:href="#linearGradient2"
       id="linearGradient3"
       x1="68.590195"
       y1="133.75089"
       x2="68.465492"
       y2="161.49873"
       gradientUnits="userSpaceOnUse"
       gradientTransform="matrix(0,1.9205508,-7.6893926,0,1255.838,-13.723339)" /><linearGradient
       xlink:href="#linearGradient4"
       id="linearGradient6"
       x1="68.465492"
       y1="161.49873"
       x2="68.590195"
       y2="133.75089"
       gradientUnits="userSpaceOnUse"
       gradientTransform="matrix(0,1.9205508,-7.6893926,0,1255.838,-13.723339)" /><marker
       style="overflow:visible"
       id="Dot-8"
       refX="0"
       refY="0"
       orient="auto"
       markerWidth="0.69999999"
       markerHeight="0.69999999"
       viewBox="0 0 1 1"
       preserveAspectRatio="xMidYMid"><path
         transform="scale(0.5)"
         style="fill:context-stroke;fill-rule:evenodd;stroke:none"
         d="M 5,0 C 5,2.76 2.76,5 0,5 -2.76,5 -5,2.76 -5,0 c 0,-2.76 2.3,-5 5,-5 2.76,0 5,2.24 5,5 z"
         id="path17-0" /></marker></defs><g
     id="layer1"
     transform="matrix(11.387634,0,0,11.387634,-255.2812,-457.80871)"><g
       id="g2"
       transform="matrix(0.37399153,0,0,0.37399153,22.417405,123.81615)"><g
         id="layer2"
         transform="translate(-6.963475,-103.09236)" /><g
         id="layer1-9"
         transform="translate(-6.963475,-103.09236)"><g
           id="g1"
           transform="matrix(0.4391494,0,0,0.4391494,22.868091,119.86928)"
           style="display:none"><g
             id="layer1-1"
             transform="rotate(21.039535,281.94608,-22.600474)"><circle
               style="opacity:1;fill:none;stroke:#800080;stroke-width:5;stroke-linecap:round;stroke-linejoin:round;stroke-dasharray:none;stroke-opacity:1"
               id="path1"
               cx="104.93771"
               cy="134.39085"
               r="57.867996" /><path
               style="fill:none;stroke:#800080;stroke-width:6;stroke-linecap:butt;stroke-linejoin:round;stroke-dasharray:none;stroke-opacity:1;marker-end:url(#Dot)"
               d="m 48.109369,148.04327 38.189569,-15.103 c 4.695498,-24.19556 26.476042,-18.58906 33.422132,-10.22617 2.32822,0.95219 5.92272,-3.60454 4.98838,-5.48722 -14.52908,-14.75429 -35.816608,-10.78642 -45.144821,6.98373 -1.166328,1.48379 -6.173288,-0.53512 -5.986055,-3.74128 1.498887,-5.24254 8.529021,-13.07547 13.526545,-16.31554 0.322701,-2.95063 -1.065723,-5.265203 -4.048626,-5.882744 -4.613809,1.614321 -16.205589,10.164814 -20.202932,31.925624 -3.291096,1.25811 -5.308121,0.53433 -6.48489,-1.49652 9.562349,-63.228969 79.530169,-47.020904 91.037899,-20.20293 1.02481,2.92004 -2.91113,5.87183 -4.73896,4.48954 C 128.13147,93.6319 110.46468,89.442724 97.772208,93.532086 c -2.273669,0.786627 -2.122231,7.029994 0.997675,7.233154 37.771807,-7.144959 55.742347,42.12137 24.443057,61.85588 -3.09342,-0.52988 -4.04706,-2.63645 -3.99071,-5.48722 13.5417,-13.19126 13.07709,-18.47668 11.1797,-23.38661 -0.61667,-1.59577 -3.84612,-1.97441 -5.9419,-1.05644 -0.80773,10.1891 -7.69493,26.67523 -32.424457,16.46165 -2.03907,0.075 -5.036176,3.02899 -2.743607,6.23547 6.095656,5.47949 12.538194,5.40883 18.955834,5.73664 2.85169,2.11636 1.40002,6.42617 -0.49884,6.48489 -11.119241,2.4271 -20.124194,-2.23489 -28.433752,-9.2285 -3.884122,-0.008 -5.248683,1.93025 -5.487214,4.73896 24.249619,26.93018 77.443186,12.56692 73.578576,-37.41283 0.69719,-2.79329 7.04586,-3.1801 7.9814,-0.49884 2.14367,71.588 -80.560196,71.6051 -94.779179,31.42678 -0.870506,-2.66752 -0.562442,-4.34285 0.498838,-5.2378 L 104.2571,133.93795"
               id="path7" /></g><g
             id="layer7"
             transform="translate(-44.561147,-74.01429)"><ellipse
               style="opacity:1;fill:none;stroke:#d4aa00;stroke-width:8;stroke-linecap:round;stroke-linejoin:round;stroke-dasharray:none;stroke-opacity:1"
               id="path8"
               cx="104.93771"
               cy="134.39085"
               rx="12.748106"
               ry="12.868371" /><path
               id="rect8"
               style="opacity:1;fill:#d4aa00;fill-opacity:1;stroke:none;stroke-width:7.22956;stroke-linecap:round;stroke-linejoin:round;stroke-dasharray:none;stroke-opacity:1"
               d="m 98.833974,143.45205 v 27.8107 l -11.79876,0.18811 0.0491,6.95668 8.13697,-0.12971 -2.22053,0.0522 0.0274,5.72524 -5.99292,0.0956 0.0491,6.95616 11.74967,-0.18758 v 3.76566 h 11.785856 v -51.23305 z" /></g></g><text
           xml:space="preserve"
           style="font-style:normal;font-weight:normal;font-size:111.732px;line-height:1.25;font-family:sans-serif;letter-spacing:0px;word-spacing:0px;fill:#000000;fill-opacity:1;stroke:none;stroke-width:2.79334"
           x="1.9396259"
           y="183.06192"
           id="text1"
           transform="scale(0.97767192,1.022838)"><tspan
             id="tspan1"
             style="font-style:normal;font-variant:normal;font-weight:bold;font-stretch:normal;font-family:'Century Gothic';-inkscape-font-specification:'Century Gothic Bold';fill:#87ceeb;fill-opacity:1;stroke-width:2.79334"
             x="1.9396259"
             y="183.06192">CRESTLINE</tspan></text><text
           xml:space="preserve"
           style="font-style:normal;font-weight:normal;font-size:4.65051px;line-height:1.25;font-family:sans-serif;letter-spacing:0px;word-spacing:0px;white-space:pre;inline-size:38.9003;display:inline;fill:#000000;fill-opacity:1;stroke:none;stroke-width:0.499077"
           x="7.1568918"
           y="181.35753"
           id="text2"
           transform="matrix(3.7683802,0,0,3.5182634,-49.195424,-432.23962)" /><text
           xml:space="preserve"
           style="font-style:normal;font-weight:normal;font-size:50.8px;line-height:1.25;font-family:sans-serif;letter-spacing:0px;word-spacing:0px;fill:#000000;fill-opacity:1;stroke:none;stroke-width:0.264583"
           x="11.743603"
           y="230.42809"
           id="text3"><tspan
             id="tspan3"
             style="font-style:normal;font-variant:normal;font-weight:bold;font-stretch:normal;font-size:50.8px;font-family:Consolas;-inkscape-font-specification:'Consolas Bold';fill:#800080;stroke-width:0.264583"
             x="11.743603"
             y="230.42809">FINANCIAL SERVICES</tspan></text></g></g><path
       style="fill:url(#linearGradient3);fill-opacity:1;stroke:url(#linearGradient6);stroke-width:3.84288;stroke-linecap:butt;stroke-linejoin:miter;stroke-dasharray:none"
       d="M 213.992,117.8634 H 23.162885"
       id="path2" /><g
       id="g3"
       transform="matrix(0.5938429,0,0,0.5938429,82.723246,40.202268)"><g
         id="layer1-95"
         transform="rotate(21.039535,281.94608,-22.600474)"><circle
           style="opacity:1;fill:none;stroke:#800080;stroke-width:5;stroke-linecap:round;stroke-linejoin:round;stroke-dasharray:none;stroke-opacity:1"
           id="path1-3"
           cx="104.93771"
           cy="134.39085"
           r="57.867996" /><path
           style="fill:none;stroke:#800080;stroke-width:6;stroke-linecap:butt;stroke-linejoin:round;stroke-dasharray:none;stroke-opacity:1;marker-end:url(#Dot-8)"
           d="m 48.109369,148.04327 38.189569,-15.103 c 4.695498,-24.19556 26.476042,-18.58906 33.422132,-10.22617 2.32822,0.95219 5.92272,-3.60454 4.98838,-5.48722 -14.52908,-14.75429 -35.816608,-10.78642 -45.144821,6.98373 -1.166328,1.48379 -6.173288,-0.53512 -5.986055,-3.74128 1.498887,-5.24254 8.529021,-13.07547 13.526545,-16.31554 0.322701,-2.95063 -1.065723,-5.265203 -4.048626,-5.882744 -4.613809,1.614321 -16.205589,10.164814 -20.202932,31.925624 -3.291096,1.25811 -5.308121,0.53433 -6.48489,-1.49652 9.562349,-63.228969 79.530169,-47.020904 91.037899,-20.20293 1.02481,2.92004 -2.91113,5.87183 -4.73896,4.48954 C 128.13147,93.6319 110.46468,89.442724 97.772208,93.532086 c -2.273669,0.786627 -2.122231,7.029994 0.997675,7.233154 37.771807,-7.144959 55.742347,42.12137 24.443057,61.85588 -3.09342,-0.52988 -4.04706,-2.63645 -3.99071,-5.48722 13.5417,-13.19126 13.07709,-18.47668 11.1797,-23.38661 -0.61667,-1.59577 -3.84612,-1.97441 -5.9419,-1.05644 -0.80773,10.1891 -7.69493,26.67523 -32.424457,16.46165 -2.03907,0.075 -5.036176,3.02899 -2.743607,6.23547 6.095656,5.47949 12.538194,5.40883 18.955834,5.73664 2.85169,2.11636 1.40002,6.42617 -0.49884,6.48489 -11.119241,2.4271 -20.124194,-2.23489 -28.433752,-9.2285 -3.884122,-0.008 -5.248683,1.93025 -5.487214,4.73896 24.249619,26.93018 77.443186,12.56692 73.578576,-37.41283 0.69719,-2.79329 7.04586,-3.1801 7.9814,-0.49884 2.14367,71.588 -80.560196,71.6051 -94.779179,31.42678 -0.870506,-2.66752 -0.562442,-4.34285 0.498838,-5.2378 L 104.2571,133.93795"
           id="path7-9" /></g><g
         id="layer7-9"
         transform="translate(-44.561147,-74.01429)"><ellipse
           style="opacity:1;fill:none;stroke:#d4aa00;stroke-width:8;stroke-linecap:round;stroke-linejoin:round;stroke-dasharray:none;stroke-opacity:1"
           id="path8-5"
           cx="104.93771"
           cy="134.39085"
           rx="12.748106"
           ry="12.868371" /><path
           id="rect8-6"
           style="opacity:1;fill:#d4aa00;fill-opacity:1;stroke:none;stroke-width:7.22956;stroke-linecap:round;stroke-linejoin:round;stroke-dasharray:none;stroke-opacity:1"
           d="m 98.833974,143.45205 v 27.8107 l -11.79876,0.18811 0.0491,6.95668 8.13697,-0.12971 -2.22053,0.0522 0.0274,5.72524 -5.99292,0.0956 0.0491,6.95616 11.74967,-0.18758 v 3.76566 h 11.785856 v -51.23305 z" /></g></g><rect
       style="display:none;fill:none;stroke-width:0.974136;stroke-linecap:round;stroke-linejoin:round;paint-order:stroke markers fill"
       id="rect3"
       width="290.68652"
       height="71.555115"
       x="-27.6166"
       y="113.72874" /></g></svg>
