<?xml version="1.0" encoding="UTF-8" standalone="no"?>
<!-- Created with Inkscape (http://www.inkscape.org/) -->

<svg
   width="210mm"
   height="297mm"
   viewBox="0 0 210 297"
   version="1.1"
   id="svg1"
   xml:space="preserve"
   inkscape:version="1.3.2 (091e20e, 2023-11-25, custom)"
   sodipodi:docname="GMAIL_Icon.svg"
   xmlns:inkscape="http://www.inkscape.org/namespaces/inkscape"
   xmlns:sodipodi="http://sodipodi.sourceforge.net/DTD/sodipodi-0.dtd"
   xmlns="http://www.w3.org/2000/svg"
   xmlns:svg="http://www.w3.org/2000/svg"><sodipodi:namedview
     id="namedview1"
     pagecolor="#505050"
     bordercolor="#eeeeee"
     borderopacity="1"
     inkscape:showpageshadow="0"
     inkscape:pageopacity="0"
     inkscape:pagecheckerboard="0"
     inkscape:deskcolor="#505050"
     inkscape:document-units="mm"
     inkscape:zoom="1.5001964"
     inkscape:cx="338.28904"
     inkscape:cy="581.25722"
     inkscape:window-width="1920"
     inkscape:window-height="1051"
     inkscape:window-x="-9"
     inkscape:window-y="-9"
     inkscape:window-maximized="1"
     inkscape:current-layer="layer2" /><defs
     id="defs1" /><g
     inkscape:groupmode="layer"
     id="layer2"
     inkscape:label="Layer 2"><path
       id="rect9"
       style="fill:#ffffff;fill-opacity:1;stroke:none;stroke-width:2;stroke-linecap:round;stroke-linejoin:round"
       d="M 60.492948 104.76156 C 55.314501 104.76156 51.145715 108.93035 51.145715 114.1088 L 51.145715 183.77328 C 51.145715 188.95173 55.314501 193.12051 60.492948 193.12051 L 151.49825 193.12051 C 156.67669 193.12051 160.84548 188.95173 160.84548 183.77328 L 160.84548 114.1088 C 160.84548 108.93035 156.67669 104.76156 151.49825 104.76156 L 60.492948 104.76156 z M 66.665181 117.00009 C 66.962939 116.99981 67.214667 117.01143 67.404671 117.01921 C 67.653915 117.00157 67.89275 117.00419 68.122457 117.02438 L 68.122974 117.02438 C 68.123318 117.02441 68.123663 117.02435 68.124007 117.02438 C 68.582819 117.06487 69.004087 117.17485 69.391113 117.32979 C 69.584845 117.40735 69.769859 117.49624 69.947152 117.59334 C 70.121317 117.68872 70.287573 117.79241 70.446863 117.90081 C 70.449723 117.90276 70.452792 117.90455 70.455648 117.9065 L 70.456165 117.9065 C 70.460472 117.90944 70.46427 117.91285 70.468567 117.9158 C 70.625634 118.02359 70.77622 118.13601 70.919702 118.25066 C 71.214731 118.48642 71.482122 118.73061 71.725854 118.95915 L 71.719653 118.95915 L 106.15631 144.56172 L 140.39712 119.10384 L 140.39712 118.91626 L 140.57437 118.91626 C 142.68194 116.82975 145.35881 116.978 146.34352 117.01921 C 148.29464 116.87807 149.61768 118.04501 150.57169 118.95915 L 150.49417 118.95915 L 150.49417 181.57031 L 140.39712 181.57031 L 140.39712 133.71432 L 106.17595 159.15669 L 104.18486 157.69167 L 104.17814 157.70097 L 71.648857 133.5164 L 71.648857 181.57031 L 61.551799 181.57031 L 61.551799 118.95915 L 61.463432 118.95915 C 61.678607 118.74675 61.900015 118.55809 62.12489 118.38864 C 62.136305 118.38004 62.147563 118.37181 62.158997 118.36332 C 62.376751 118.20148 62.597624 118.05862 62.819938 117.93234 C 62.831403 117.92582 62.842573 117.91912 62.854045 117.9127 C 63.079061 117.78669 63.305363 117.67725 63.530489 117.583 C 63.536328 117.58056 63.542222 117.57819 63.548059 117.57577 C 63.780233 117.47934 64.011002 117.39783 64.238456 117.33031 L 64.238973 117.33031 C 64.465683 117.26302 64.688847 117.20936 64.906116 117.16597 C 64.914342 117.16433 64.922195 117.16242 64.930404 117.16081 C 65.129159 117.12177 65.321291 117.09335 65.508146 117.07037 C 65.530074 117.06768 65.551522 117.06461 65.573258 117.06211 C 65.976565 117.0156 66.347788 117.0004 66.665181 117.00009 z " /></g><g
     inkscape:label="Layer 1"
     inkscape:groupmode="layer"
     id="layer1" /></svg>
